<?xml version="1.0" encoding="UTF-8" standalone="no"?>
<svg
   xmlns:dc="http://purl.org/dc/elements/1.1/"
   xmlns:cc="http://creativecommons.org/ns#"
   xmlns:rdf="http://www.w3.org/1999/02/22-rdf-syntax-ns#"
   xmlns:svg="http://www.w3.org/2000/svg"
   xmlns="http://www.w3.org/2000/svg"
   viewBox="0 0 759.51251 131.9875"
   height="131.9875"
   width="759.51251"
   xml:space="preserve"
   version="1.1"
   id="svg2"><metadata
     id="metadata8"><rdf:RDF><cc:Work
         rdf:about=""><dc:format>image/svg+xml</dc:format><dc:type
           rdf:resource="http://purl.org/dc/dcmitype/StillImage" /></cc:Work></rdf:RDF></metadata><defs
     id="defs6" /><g
     transform="matrix(1.25,0,0,-1.25,0,131.9875)"
     id="g10"><g
       transform="scale(0.1,0.1)"
       id="g12"><path
         id="path14"
         style="fill:#00adef;fill-opacity:1;fill-rule:nonzero;stroke:none"
         d="m 6031.79,66.2344 -16.08,-9.6289 c -63.3,-9.0039 -136.58,5.7695 -196.02,-12.8555 -118.9,-7.3906 -238.29,-5.0312 -353.33,-12.3984 -48.22,10.6093 -101.71,-3.043 -147.99,22.0195 -38.88,-3.5117 -62.66,36.0156 -86.77,61.0739 -21.84,61.055 -13.15,232.539 -10.77,208.684 4.16,-41.418 6.52,348.75 35.6,359.383 29.03,10.636 752.86,3.945 752.86,3.945 14.77,0.645 13.82,-16.387 25.71,-22.5 L 6031.79,66.2344 Z M 5359.61,831.957 c 91.36,51.043 199.05,115.035 288.21,170.813 34.65,-3.157 68.54,-7.532 103.19,-10.676 63,-62.391 120.98,-92.52 189.08,-173.274 37.49,-27.734 42.2,-69.328 63,-103.984 -127.53,-0.293 -127.74,7.766 -220.06,6.816 l -85.38,-7.109 c -100.82,0.937 -193.4,-26.914 -288.23,7.109 -42.71,-7.109 -100.62,-5.183 -149.45,-17.793 -4.4,1.582 3.06,28.946 -0.42,33.039 24.9,40.008 66.96,61.036 100.06,95.059 z m 656.08,-32.043 -264.65,233.136 c -44.11,-4.1 -102.71,38.76 -132.32,-12.6 -74.04,-25.192 -132.96,-87.27 -201.64,-126.028 -62.69,-40.016 -114.51,-82.524 -178.46,-119.391 l -23.17,-107.441 -31.5,-541.902 47.26,-69.3091 C 5295.55,2.87109 5332.47,30.7891 5370.28,10 l 305.16,5.4102 c 105.86,5.0507 221.16,6.0117 327.65,18.9101 l 3.15,-3.1601 3.14,3.1601 c 5.99,1.8906 8.83,-2.832 12.61,-6.3008 14.81,2.5313 25.9,4.7188 35.03,21.1211 l 9.07,608.9964 -50.4,141.777" /><path
         id="path16"
         style="fill:none;stroke:#00adef;stroke-width:20;stroke-linecap:round;stroke-linejoin:round;stroke-miterlimit:4;stroke-dasharray:none;stroke-opacity:1"
         d="m 6031.79,66.2344 -16.08,-9.6289 c -63.3,-9.0039 -136.58,5.7695 -196.02,-12.8555 -118.9,-7.3906 -238.29,-5.0312 -353.33,-12.3984 -48.22,10.6093 -101.71,-3.043 -147.99,22.0195 -38.88,-3.5117 -62.66,36.0156 -86.77,61.0739 -21.84,61.055 -13.15,232.539 -10.77,208.684 4.16,-41.418 6.52,348.75 35.6,359.383 29.03,10.636 752.86,3.945 752.86,3.945 14.77,0.645 13.82,-16.387 25.71,-22.5 L 6031.79,66.2344 Z M 5359.61,831.957 c 91.36,51.043 199.05,115.035 288.21,170.813 34.65,-3.157 68.54,-7.532 103.19,-10.676 63,-62.391 120.98,-92.52 189.08,-173.274 37.49,-27.734 42.2,-69.328 63,-103.984 -127.53,-0.293 -127.74,7.766 -220.06,6.816 l -85.38,-7.109 c -100.82,0.937 -193.4,-26.914 -288.23,7.109 -42.71,-7.109 -100.62,-5.183 -149.45,-17.793 -4.4,1.582 3.06,28.946 -0.42,33.039 24.9,40.008 66.96,61.036 100.06,95.059 z m 656.08,-32.043 -264.65,233.136 c -44.11,-4.1 -102.71,38.76 -132.32,-12.6 -74.04,-25.192 -132.96,-87.27 -201.64,-126.028 -62.69,-40.016 -114.51,-82.524 -178.46,-119.391 l -23.17,-107.441 -31.5,-541.902 47.26,-69.3091 C 5295.55,2.87109 5332.47,30.7891 5370.28,10 l 305.16,5.4102 c 105.86,5.0507 221.16,6.0117 327.65,18.9101 l 3.15,-3.1601 3.14,3.1601 c 5.99,1.8906 8.83,-2.832 12.61,-6.3008 14.81,2.5313 25.9,4.7188 35.03,21.1211 l 9.07,608.9964 -50.4,141.777 z" /><path
         id="path18"
         style="fill:#00adef;fill-opacity:1;fill-rule:nonzero;stroke:none"
         d="m 59.9023,539.016 1.0547,0 c 12.2071,32.871 31.2696,44.004 75.273,44.004 62.559,0 86.934,-23.321 86.934,-82.684 l 0,-168.027 -59.902,0 0,152.129 c 0,41.328 -7.949,50.347 -43.457,50.347 -45.0589,0 -59.9027,-15.894 -59.9027,-62.008 l 0,-140.468 -59.9023,0 0,353.554 59.9023,0 0,-146.847" /><path
         id="path20"
         style="fill:#00adef;fill-opacity:1;fill-rule:nonzero;stroke:none"
         d="m 342.949,508.285 c 1.055,29.141 9.024,35.496 45.586,35.496 41.875,0 51.426,-8.996 51.426,-48.769 l 0,-40.274 -1.074,0 c -10.059,22.266 -27.032,28.614 -74.727,28.614 -66.797,0 -91.699,-21.18 -91.699,-77.383 0,-56.699 23.848,-76.844 90.098,-76.844 47.187,0 65.214,8.477 78.457,37.098 l 1.582,0 -2.637,-33.914 59.902,0 0,161.668 c 0,69.433 -24.922,89.043 -114.492,89.043 -81.641,0 -102.324,-14.832 -102.851,-74.735 l 60.429,0 z m 40.293,-64.68 c 45.586,0 57.246,-7.41 57.246,-36.57 0,-26.496 -13.261,-35.527 -53.535,-35.527 -44.004,0 -53.535,6.914 -53.535,38.183 0,26.504 11.113,33.914 49.824,33.914" /><path
         id="path22"
         style="fill:#00adef;fill-opacity:1;fill-rule:nonzero;stroke:none"
         d="m 559.199,332.309 59.903,0 -2.637,39.199 1.055,0 c 13.769,-30.735 33.906,-42.383 76.308,-42.383 37.09,0 61.992,9.004 75.781,27.031 16.954,21.727 21.192,42.391 21.192,103.875 0,94.367 -21.719,122.989 -92.735,122.989 -45.039,0 -66.777,-11.133 -77.91,-39.239 l -1.054,0.528 0,141.554 -59.903,0 0,-353.554 z m 118.203,202.996 c 43.438,0 52.442,-13.242 52.442,-77.918 0,-69.438 -7.93,-81.094 -56.153,-81.094 -45.586,0 -53.535,12.723 -53.535,87.449 0,54.59 13.262,71.563 57.246,71.563" /><path
         id="path24"
         style="fill:#00adef;fill-opacity:1;fill-rule:nonzero;stroke:none"
         d="m 900,332.309 -59.902,0 0,247.527 59.902,0 0,-247.527 z m 0,302.656 -59.902,0 0,50.898 59.902,0 0,-50.898" /><path
         id="path26"
         style="fill:#00adef;fill-opacity:1;fill-rule:nonzero;stroke:none"
         d="m 1118.38,534.785 -94.36,0 0,-124.043 c 0,-28.621 4.77,-35.504 25.98,-35.504 22.79,0 28.63,8.477 28.63,42.391 0,2.121 0,5.832 -0.54,10.078 l 50.37,0 0,-12.723 c 0,-66.261 -18.56,-85.859 -81.1,-85.859 -46.13,0 -66.813,8.477 -77.399,32.332 -4.766,10.051 -5.82,18.02 -5.82,40.801 l 0,132.527 -32.344,0 0,45.051 32.344,0 0,55.129 59.879,0 0,-55.129 94.36,0 0,-45.051" /><path
         id="path28"
         style="fill:#00adef;fill-opacity:1;fill-rule:nonzero;stroke:none"
         d="m 1230.2,508.285 c 1.07,29.141 9.02,35.496 45.6,35.496 41.88,0 51.43,-8.996 51.43,-48.769 l 0,-40.274 -1.08,0 c -10.08,22.266 -27.03,28.614 -74.74,28.614 -66.8,0 -91.72,-21.18 -91.72,-77.383 0,-56.699 23.85,-76.844 90.13,-76.844 47.19,0 65.2,8.477 78.46,37.098 l 1.58,0 -2.63,-33.914 59.92,0 0,161.668 c 0,69.433 -24.92,89.043 -114.53,89.043 -81.64,0 -102.35,-14.832 -102.87,-74.735 l 60.45,0 z m 40.29,-64.68 c 45.58,0 57.26,-7.41 57.26,-36.57 0,-26.496 -13.26,-35.527 -53.55,-35.527 -44,0 -53.56,6.914 -53.56,38.183 0,26.504 11.14,33.914 49.85,33.914" /><path
         id="path30"
         style="fill:#00adef;fill-opacity:1;fill-rule:nonzero;stroke:none"
         d="m 1606.6,534.785 -94.35,0 0,-124.043 c 0,-28.621 4.78,-35.504 25.97,-35.504 22.8,0 28.64,8.477 28.64,42.391 0,2.121 0,5.832 -0.53,10.078 l 50.37,0 0,-12.723 c 0,-66.261 -18.56,-85.859 -81.11,-85.859 -46.14,0 -66.8,8.477 -77.43,32.332 -4.76,10.051 -5.82,18.02 -5.82,40.801 l 0,132.527 -32.34,0 0,45.051 32.34,0 0,55.129 59.91,0 0,-55.129 94.35,0 0,-45.051" /><path
         id="path32"
         style="fill:#00adef;fill-opacity:1;fill-rule:nonzero;stroke:none"
         d="m 1941.07,411.262 c -0.52,-31.785 -8.45,-37.625 -51.93,-37.625 -45.06,0 -56.19,12.187 -56.19,60.965 l 0,10.597 167.5,0 0,18.543 c 0,95.957 -22.27,119.278 -115.04,119.278 -89.57,0 -112.89,-26.512 -112.89,-127.774 0,-102.285 22.79,-126.121 119.26,-126.121 78.98,0 108.67,19.598 108.67,72.605 l 0,9.532 -59.38,0 z m 0.53,71.035 -108.12,0 c 1.05,48.234 8.47,56.183 53.53,56.183 45.61,0 53.54,-6.875 54.59,-46.64 l 0,-9.543" /><path
         id="path34"
         style="fill:#00adef;fill-opacity:1;fill-rule:nonzero;stroke:none"
         d="m 2215.12,534.785 -94.34,0 0,-124.043 c 0,-28.621 4.77,-35.504 25.96,-35.504 22.81,0 28.63,8.477 28.63,42.391 0,2.121 0,5.832 -0.53,10.078 l 50.37,0 0,-12.723 c 0,-66.261 -18.55,-85.859 -81.11,-85.859 -46.11,0 -66.78,8.477 -77.38,32.332 -4.77,10.051 -5.84,18.02 -5.84,40.801 l 0,132.527 -32.33,0 0,45.051 32.33,0 0,55.129 59.9,0 0,-55.129 94.34,0 0,-45.051" /><path
         id="path36"
         style="fill:#f36623;fill-opacity:1;fill-rule:nonzero;stroke:none"
         d="m 2449.96,539.016 1.04,0 c 12.18,32.871 31.29,44.004 75.29,44.004 62.54,0 86.93,-23.321 86.93,-82.684 l 0,-168.027 -59.92,0 0,152.129 c 0,41.328 -7.95,50.347 -43.46,50.347 -45.05,0 -59.88,-15.894 -59.88,-62.008 l 0,-140.468 -59.92,0 0,353.554 59.92,0 0,-146.847" /><path
         id="path38"
         style="fill:#f36623;fill-opacity:1;fill-rule:nonzero;stroke:none"
         d="m 2890.94,332.309 -59.89,0 3.17,42.382 -1.06,0.547 c -12.18,-31.789 -36.03,-46.113 -78.43,-46.113 -58.83,0 -84.3,25.43 -84.3,84.266 l 0,166.445 59.9,0 0,-152.129 c 0,-41.348 7.95,-50.383 44.53,-50.383 42.93,0 56.19,15.942 56.19,67.348 l 0,135.164 59.89,0 0,-247.527" /><path
         id="path40"
         style="fill:#f36623;fill-opacity:1;fill-rule:nonzero;stroke:none"
         d="m 3010.74,579.836 -1.58,-38.184 1.05,0 c 12.7,29.18 34.99,41.368 75.28,41.368 44.51,0 69.94,-15.918 74.74,-46.122 l 1.04,0 c 12.19,31.817 35.53,46.122 75.82,46.122 63.07,0 86.41,-23.836 86.41,-86.934 l 0,-163.777 -59.93,0 0,151.043 c 0,39.765 -9.02,50.898 -42.93,50.898 -39.76,0 -53.53,-14.305 -53.53,-57.246 l 0,-144.695 -59.9,0 0,153.183 c 0,40.274 -7.42,48.758 -42.41,48.758 -38.18,0 -54.06,-16.965 -54.06,-58.301 l 0,-143.64 -59.9,0 0,247.527 59.9,0" /><path
         id="path42"
         style="fill:#f36623;fill-opacity:1;fill-rule:nonzero;stroke:none"
         d="m 3446.97,508.285 c 1.08,29.141 9.03,35.496 45.59,35.496 41.89,0 51.42,-8.996 51.42,-48.769 l 0,-40.274 -1.07,0 c -10.06,22.266 -27.03,28.614 -74.73,28.614 -66.77,0 -91.7,-21.18 -91.7,-77.383 0,-56.699 23.85,-76.844 90.12,-76.844 47.15,0 65.2,8.477 78.42,37.098 l 1.62,0 -2.66,-33.914 59.89,0 0,161.668 c 0,69.433 -24.89,89.043 -114.49,89.043 -81.63,0 -102.29,-14.832 -102.84,-74.735 l 60.43,0 z m 40.28,-64.68 c 45.6,0 57.26,-7.41 57.26,-36.57 0,-26.496 -13.24,-35.527 -53.53,-35.527 -44.01,0 -53.54,6.914 -53.54,38.183 0,26.504 11.11,33.914 49.81,33.914" /><path
         id="path44"
         style="fill:#f36623;fill-opacity:1;fill-rule:nonzero;stroke:none"
         d="m 3723.65,579.836 -2.09,-41.887 1.06,0 c 11.64,30.766 35.51,45.071 75.78,45.071 65.21,0 88.01,-21.2 88.01,-82.176 l 0,-168.535 -59.91,0 0,158.476 c 0,33.375 -10.58,44 -44,44 -40.27,0 -58.3,-16.961 -58.3,-55.652 l 0,-146.824 -60.96,0 0,247.527 60.41,0" /><path
         id="path46"
         style="fill:#f36623;fill-opacity:1;fill-rule:nonzero;stroke:none"
         d="m 4004.61,332.309 -59.9,0 0,247.527 59.9,0 0,-247.527 z m 0,302.656 -59.9,0 0,50.898 59.9,0 0,-50.898" /><path
         id="path48"
         style="fill:#f36623;fill-opacity:1;fill-rule:nonzero;stroke:none"
         d="m 4210.78,511.984 c -3.18,28.098 -5.84,29.668 -51.93,29.668 -39.24,0 -47.19,-4.754 -47.19,-29.668 0,-15.898 4.26,-23.847 14.82,-26.492 5.32,-1.613 8.5,-2.14 48.79,-3.711 55.12,-2.648 68.38,-5.304 82.15,-16.445 13.79,-11.137 20.69,-30.207 20.69,-56.719 0,-59.894 -29.16,-79.492 -116.61,-79.492 -84.82,0 -110.29,17.48 -110.29,74.18 l 0,6.914 61.5,0 0,-7.961 c 0,-25.438 9.56,-31.27 50.38,-31.27 45.04,0 55.64,6.336 55.64,32.317 0,24.402 -7.42,30.75 -35.51,31.297 -108.12,1.054 -130.41,13.789 -130.41,73.156 0,59.871 22.8,75.262 111.88,75.262 82.15,0 104.39,-14.832 104.39,-71.036 l -58.3,0" /><path
         id="path50"
         style="fill:#f36623;fill-opacity:1;fill-rule:nonzero;stroke:none"
         d="m 4385.18,579.836 -1.61,-38.184 1.08,0 c 12.71,29.18 34.98,41.368 75.25,41.368 44.53,0 69.98,-15.918 74.75,-46.122 l 1.05,0 c 12.21,31.817 35.53,46.122 75.8,46.122 63.09,0 86.41,-23.836 86.41,-86.934 l 0,-163.777 -59.9,0 0,151.043 c 0,39.765 -9.01,50.898 -42.95,50.898 -39.75,0 -53.54,-14.305 -53.54,-57.246 l 0,-144.695 -59.88,0 0,153.183 c 0,40.274 -7.42,48.758 -42.42,48.758 -38.13,0 -54.04,-16.965 -54.04,-58.301 l 0,-143.64 -59.91,0 0,247.527 59.91,0" /><path
         id="path52"
         style="fill:#f36623;fill-opacity:1;fill-rule:nonzero;stroke:none"
         d="m 4919.49,411.262 c -0.54,-31.785 -8.51,-37.625 -51.97,-37.625 -45.06,0 -56.19,12.187 -56.19,60.965 l 0,10.597 167.5,0 0,18.543 c 0,95.957 -22.25,119.278 -115.02,119.278 -89.57,0 -112.91,-26.512 -112.91,-127.774 0,-102.285 22.79,-126.121 119.28,-126.121 78.98,0 108.65,19.598 108.65,72.605 l 0,9.532 -59.34,0 z m 0.51,71.035 -108.14,0 c 1.07,48.234 8.49,56.183 53.53,56.183 45.59,0 53.56,-6.875 54.61,-46.64 l 0,-9.543" /><path
         id="path54"
         style="fill:#f36623;fill-opacity:1;fill-rule:evenodd;stroke:none"
         d="m 5903.19,383.547 c -7.99,2.266 -11.98,8.594 -10.25,20.527 -34.58,6.496 -95.34,-13.222 -112.91,10.246 32.38,50.887 42.66,143.368 -30.81,164.239 -69.32,0.097 -58.99,-115.149 -30.78,-153.965 -72.38,-3.938 -102.5,34.383 -184.77,20.535 31.29,26.848 51.18,65.148 41.06,133.43 -73.06,82.507 -154.02,-17.911 -123.19,-133.43 -46.28,1.797 -93.95,5.019 -92.38,-41.055 -0.03,-44.539 70.96,-18.008 92.38,-41.054 17.34,-98.614 -98.66,-196.985 10.29,-236.082 54.66,10.281 29.91,100.105 82.12,112.917 27.56,-25.164 -21.26,-73.593 10.25,-102.675 7.98,-2.313 20.26,-0.274 20.53,-10.242 104.46,32.917 6.47,179.48 10.25,225.828 10.67,-23.575 73.3,4.851 82.12,-20.528 -21.76,-40.625 -71.08,-181.687 20.55,-184.773 32.04,32.957 23.23,106.746 61.57,133.457 30.31,-45 33.43,-117.18 112.89,-112.949 41.19,81.355 -49.78,112.558 -61.55,174.519 48.13,-0.234 104.77,-9.004 102.63,41.055" /><path
         id="path56"
         style="fill:#f36623;fill-opacity:1;fill-rule:nonzero;stroke:none"
         d="m 4504.81,232.309 -1.4,-14.2 0.41,0 c 5.99,11.602 12.19,15.399 24.59,15.399 12.4,0 20,-5.195 22.8,-15.801 1.2,-4.598 1.4,-7.598 1.4,-24.004 l -24.4,0 0,3.809 c 0,12.199 -2,15.39 -9.8,15.39 -8.79,0 -13.6,-5.593 -13.6,-15.996 l 0,-57.996 -26.6,0 0,93.399 26.6,0" /><path
         id="path58"
         style="fill:#f36623;fill-opacity:1;fill-rule:nonzero;stroke:none"
         d="m 4592.2,215.109 0.39,0 c 5,14.004 11.6,18.204 28.6,18.204 21.4,0 31.4,-9.403 31.4,-29.2 l 0,-65.203 -26.6,0 0,56.395 c 0,7.402 -0.39,9.804 -2,12.207 -2.2,3.398 -5.8,4.797 -12.4,4.797 -14,0 -19.39,-5.598 -19.39,-20.207 l 0,-53.192 -26.6,0 0,133.399 26.6,0 0,-57.2" /><path
         id="path60"
         style="fill:#f36623;fill-opacity:1;fill-rule:nonzero;stroke:none"
         d="m 4696.59,187.309 c 0,-25.403 2.4,-29.2 18.4,-29.2 16,0 18.4,3.993 18.4,30.204 0,20.8 -2.8,24.796 -18.2,24.796 -15.81,0 -18.6,-3.996 -18.6,-25.8 z m 49.2,64.597 -4.8,-9.394 -26.4,11.191 -25.4,-11.191 -5,9.394 30.4,19.602 31.2,-19.602 z m 5.39,-26.992 c 6.81,-6.601 9.2,-16.211 9.2,-35.801 0,-42.402 -7.6,-51.211 -44.59,-51.211 -20,0 -30,2.403 -36.8,8.809 -7.6,7.199 -9.4,15.598 -9.4,41.602 0,21.191 2.39,30.39 10,36.992 7,6.203 15.4,8.008 36.59,8.008 19.81,0 28.41,-2 35,-8.399" /><path
         id="path62"
         style="fill:#f36623;fill-opacity:1;fill-rule:nonzero;stroke:none"
         d="m 4804.59,232.309 -1.01,-17.004 0.61,0 c 4.6,12.804 12.79,18.008 28.2,18.008 15,0 25,-4.403 29.59,-13.008 2.01,-4.2 2.81,-8.203 2.81,-16.602 l 0,-64.793 -26.6,0 0,58.399 c 0,11.199 -3.6,15 -14,15 -13.2,0 -19.4,-5.801 -19.4,-18.399 l 0,-55 -26.8,0 0,93.399 26.6,0" /><path
         id="path64"
         style="fill:#f36623;fill-opacity:1;fill-rule:nonzero;stroke:none"
         d="m 4943.78,199.504 c -0.2,12.207 -2.99,14.406 -17.79,14.406 -10.61,0 -14.2,-1.601 -16.2,-6.601 -0.81,-2.2 -1.01,-3.801 -1.21,-10.996 l 35.4,0 -0.2,3.191 z m 26.01,-30 0,-2.598 c 0,-7.597 -2.01,-14.394 -5.6,-19.004 -5.8,-7.39 -15.61,-10 -36.81,-10 -21.2,0 -32.39,3.614 -38.8,12.403 -5,6.601 -6.79,16.406 -6.79,36.601 0,20.403 2.4,30.196 9,36.797 6.99,6.809 17.39,9.61 35.39,9.61 34.01,0 43.61,-9.61 43.61,-44.2 l 0,-8.203 -61.4,0 c -0.21,-1.601 -0.21,-3.203 -0.21,-3.808 0,-15.997 4.01,-20.196 18.61,-20.196 13.59,0 16.6,2.403 16.79,12.598 l 26.21,0" /></g></g></svg>