<?xml version="1.0" encoding="UTF-8" standalone="no"?>
<svg
   xmlns:dc="http://purl.org/dc/elements/1.1/"
   xmlns:cc="http://creativecommons.org/ns#"
   xmlns:rdf="http://www.w3.org/1999/02/22-rdf-syntax-ns#"
   xmlns:svg="http://www.w3.org/2000/svg"
   xmlns="http://www.w3.org/2000/svg"
   xmlns:sodipodi="http://sodipodi.sourceforge.net/DTD/sodipodi-0.dtd"
   xmlns:inkscape="http://www.inkscape.org/namespaces/inkscape"
   version="1.0"
   width="91.677307"
   height="107.13374"
   viewBox="0 0 73.341847 85.706989"
   preserveAspectRatio="xMidYMid meet"
   id="svg2"
   inkscape:version="0.48.4 r9939"
   sodipodi:docname="habitat-Logo.svg">
  <defs
     id="defs96" />
  <sodipodi:namedview
     pagecolor="#ffffff"
     bordercolor="#666666"
     borderopacity="1"
     objecttolerance="10"
     gridtolerance="10"
     guidetolerance="10"
     inkscape:pageopacity="0"
     inkscape:pageshadow="2"
     inkscape:window-width="1301"
     inkscape:window-height="744"
     id="namedview94"
     showgrid="false"
     inkscape:zoom="2"
     inkscape:cx="-13.366398"
     inkscape:cy="30.956424"
     inkscape:window-x="65"
     inkscape:window-y="24"
     inkscape:window-maximized="1"
     inkscape:current-layer="layer2"
     showguides="false"
     inkscape:guide-bbox="true"
     fit-margin-top="0"
     fit-margin-left="0"
     fit-margin-right="0"
     fit-margin-bottom="0">
    <sodipodi:guide
       orientation="0,1"
       position="-21.438443,-36.771016"
       id="guide5590" />
    <sodipodi:guide
       orientation="0,1"
       position="-48.354197,-21.858586"
       id="guide5594" />
    <sodipodi:guide
       orientation="0,1"
       position="23.063587,-30.829996"
       id="guide5596" />
    <sodipodi:guide
       orientation="0,1"
       position="42.729997,-34.851666"
       id="guide5598" />
    <sodipodi:guide
       orientation="1,0"
       position="33.979547,-42.099513"
       id="guide3019" />
    <sodipodi:guide
       orientation="0,1"
       position="-777.60227,-294.58083"
       id="guide3033" />
    <sodipodi:guide
       orientation="0,1"
       position="-171.37595,-424.39602"
       id="guide3035" />
    <sodipodi:guide
       orientation="0,1"
       position="-614.87595,-471.39602"
       id="guide3143" />
    <sodipodi:guide
       orientation="0,1"
       position="-644.62595,-562.64602"
       id="guide3145" />
    <sodipodi:guide
       orientation="0,1"
       position="-176.20794,-497.52048"
       id="guide3147" />
    <sodipodi:guide
       orientation="0,1"
       position="-161.3587,-533.93648"
       id="guide3149" />
  </sodipodi:namedview>
  <metadata
     id="metadata4">
Created by potrace 1.10, written by Peter Selinger 2001-2011
<rdf:RDF>
  <cc:Work
     rdf:about="">
    <dc:format>image/svg+xml</dc:format>
    <dc:type
       rdf:resource="http://purl.org/dc/dcmitype/StillImage" />
    <dc:title></dc:title>
  </cc:Work>
</rdf:RDF>
</metadata>
  <g
     inkscape:groupmode="layer"
     id="layer2"
     inkscape:label="Layer1"
     style="display:inline"
     transform="translate(-82.700755,-32.776196)">
    <g
       style="fill:#ee7421;fill-opacity:1;display:inline"
       id="g3128-3-5"
       transform="matrix(0.61859113,0,0,0.61859113,-165.98363,-4.9175576)">
      <path
         inkscape:connector-curvature="0"
         id="path8-6-3"
         d="m 462.97341,61.542921 c -1.64607,0.867553 -2.96003,2.146809 -2.96003,2.646809 0,0.5 -0.96672,0.633282 -2.24681,1.060031 -4.11663,1.864702 -4.68423,2.135071 -9.16657,5.326594 -4.6,3.1 -14.87325,10.3 -23.37325,16.1 l -15.71337,10.393313 -1.24666,6.026752 c -0.25911,1.1475 -0.74823,3.62158 -1.88151,8.47006 -0.60515,9.45318 -1.34278,21.60192 -2.09858,34.5766 l -2.26925,37.39331 6.69645,9.45411 c 2.10189,1.58589 4.16565,3.74269 10.06986,4.96359 1.36073,0.28138 3.21137,0.22328 5.03582,0.37686 1.60223,0.13487 1.99476,0.27824 3.91574,1.09771 2.07534,0.13612 6.2985,-0.0111 8.91825,0 9.1,0.2 28.16656,-0.42555 42.96656,-1.22555 14.9,-0.43329 29.04666,-1.40669 31.64666,-1.50669 1.14842,0 1.0363,-0.38447 1.80056,0.43494 3.91311,-0.49254 4.66204,-1.46306 6.20643,-3.42856 0.0264,-4.23389 -3e-4,-6.75972 0.4997,-40.15972 l 0.80669,-40.52675 c -2.55558,-6.30602 -4.71775,-12.7504 -6.91338,-19.186632 L 497.88009,79.943072 c -8.9,-7.8 -17.9715,-15.939004 -19.30699,-17.053647 -1.22675,-0.379939 -4.5914,-0.04296 -7.42675,-1.366565 -5.12026,-0.787337 -5.4066,-0.787337 -8.17294,0.02006 z m 23.09331,16.853495 c 6.2534,5.211166 10.40652,7.869668 15.48583,14.402045 2.53469,1.252436 5.72811,6.674895 7.03438,11.358449 -1.40859,0.83212 -18.38851,-0.66894 -24.20641,-0.58613 -3.35359,0.0942 -18.12057,1.09856 -24.3138,1.62564 -10.3,0.8 -19.92751,1.22675 -26.68754,-1.54027 -6.16003,0.64696 -13.5339,1.18039 -18.6339,1.78039 -0.0988,-1.39377 -0.10531,-0.64696 -0.10531,-2.24696 C 415.38678,100.34292 426.6,91.789729 440.8,83.589729 c 7.4,-4.3 21.08101,-12.732617 23.78101,-14.532617 5.25838,0.764527 6.54952,0.881152 12.63756,1.530705 2.46993,1.971887 2.80515,2.828106 8.84815,7.808599 z m 27.2,33.900004 c 0.9,1.4 0.1,76.6 -0.9,78.1 -0.2,0.5 -4.8,0.8 -10.1,0.8 -5.3,0 -12.4,0.5 -15.8,1 -3.3,0.5 -18,1.1 -32.5,1.2 -17.48434,0.1076 -28.19845,0.9881 -32.48798,-1.98898 -4.49406,0.28048 -8.10921,-4.12975 -10.78558,-7.59111 -0.55303,-1.96642 -1.81991,-4.37325 -1.71991,-17.17325 0,-2.35098 0.0442,-4.80807 0.19567,-8.29518 0.13683,-0.4265 0.61017,-0.68748 0.75577,-1.11107 0.23617,-12.66422 0.17836,-33.57521 3.34203,-45.94041 l 8.2,-0.4 c 4.4,-0.3 26.7,-0.3 49.5,-0.2 33.6,0.2 41.5,0.5 42.3,1.6 z"
         sodipodi:nodetypes="cscccccccccsscccccccccccccccccccccccccccsccccccccccc"
         style="fill:#009de0;fill-opacity:1" />
      <path
         inkscape:connector-curvature="0"
         id="path10-7-5"
         d="m 442.92724,122.09291 c -3.89035,3.57895 -5.19648,10.52456 -4.36052,16.10351 0.36372,1.75798 0.16678,1.36118 0.56481,3.19992 -1.0952,-0.0781 -3.77939,0.10832 -5.27359,0.0264 -4.81578,-0.26404 -8.38771,2.92893 -5.62894,7.57368 0.50554,0.85114 2.60063,1.22774 4.4,1.27544 1.4228,0.0377 4.01316,0.33772 4.91316,0.63772 2.51316,0.86228 3.20703,4.0412 -1.57895,17.36755 -2.9,8.6 -1.14125,10.85222 2.60351,13.11929 2.96788,1.79675 5.9,-0.8 7.4,-6.6 1.27544,-6.49738 4.53914,-6.99479 4.95877,-6.99035 0.52037,0.53143 2.3237,1.80086 -0.0263,7.81842 -0.2,4.8 1.05615,4.87193 1.57193,5.25701 3.32426,0.13185 1.93887,0.77952 2.49148,1.28361 2.95986,-1.4457 2.49431,-1.05166 3.89274,-2.46869 2.83596,-2.87368 2.9114,-7.2 -0.2886,-17.2 -1.4,-4.3 -2.33268,-5.79856 -2.38684,-9.12983 1.34016,2.0942 5.11051,0.51667 9.58684,1.32983 0.8,0.3 0.6,1.8 -0.8,5.5 -2.91492,6.93948 -3.10351,14.87368 -0.70351,17.07368 1.53327,1.41223 3.73873,2.67825 4.8747,2.35816 1.30217,-1.18989 2.65335,-3.33699 3.42881,-7.63184 0.86141,-4.74341 1.69368,-6.08443 4.58684,-9.70965 l 3.11316,5.70965 c 3.69824,9.9465 9.99187,9.06521 11.57017,8.8123 0.60349,-0.7487 1.48136,-4.06569 1.18779,-6.06851 -0.49569,-3.38173 -2.36637,-5.50843 -4.95796,-8.94379 -2.2,-2.9 -3.66052,-3.57455 -4.1886,-7.15439 1.84826,-0.0833 2.0766,-0.1948 5.47544,-0.10613 5.78333,0.15087 7.89649,-1.8886 7.75615,-5.26053 -0.61221,-0.1642 -1.74558,-0.15733 -1.36574,-2.61448 -1.02391,-0.24063 -2.47728,-0.40083 -6.47725,0.0355 -5.21427,0.57143 -7.27538,0.0153 -7.91808,-1.38386 1.14406,-3.406 2.51693,-2.79431 2.9444,-10.41614 0,-4 -0.5,-5.89035 -2.9,-8.29035 -3.5,-3.4 -6.34437,-2.69616 -8.5772,-0.53597 -0.63507,0.61442 -2.45263,3.3772 -2.15263,8.5772 0.2,3.4 1.40351,6.84912 1.80351,7.74912 1,2.3 -2.1,2.4 -9,0.3 -2.7,-0.8 -6.61174,-1.61497 -8.9114,-1.57544 l -4.3886,0.0754 2.51316,-3.52456 c 3.6,-5.3 2.30219,-10.02535 2.31405,-13.3763 -2.29001,-3.10491 -7.59914,-5.91932 -12.06669,-2.20265 z"
         sodipodi:nodetypes="cccsssccscccccscccccccccccccsccccccscccscccc"
         style="fill:#ee7421;fill-opacity:1" />
    </g>
  </g>
</svg>
